<svg id="Laag_1" data-name="Laag 1" xmlns="http://www.w3.org/2000/svg" viewBox="0 0 949.84 481.15"><defs><style>.cls-1{font-size:249.45px;font-family:PermanentMarker, Permanent Marker;}</style></defs><title>IT3_Rachel</title><text class="cls-1" transform="translate(14.9 217.05)">Rachel </text><path d="M992.37,935.13a368,368,0,0,1-46.12-95.61l-10,5.84q21.65,20.52,41.22,43.07c3.19,3.67,8.62,1.27,10-2.65,7.65-21.31,16.11-43.37,27.88-62.8a55.44,55.44,0,0,1,8.23-10.8,26.35,26.35,0,0,1,5.49-4.46c2.22-1.24,3.2-1.68,4,.8,3.48,10.19,3.75,22.08,3.27,32.72-1,22.35-7.77,44.13-15.71,64.89a594.94,594.94,0,0,1-27.52,61,633.13,633.13,0,0,1-38.86,65c-4.36,6.4,6,12.41,10.36,6.06,28.67-42.11,52.82-87.84,70.15-135.78,8.4-23.23,14.76-48,13.58-72.88a120.73,120.73,0,0,0-2.16-17.66c-1-5.16-2.12-11-6.37-14.54-9.29-7.74-21.37,2.11-27.46,9.24-8.46,9.9-13.87,22.06-19.27,33.79q-9.54,20.71-17.23,42.21l10-2.65q-19.55-22.53-41.22-43.07c-4.19-4-11.89-.08-10,5.84A379.23,379.23,0,0,0,982,941.19c4.3,6.37,14.7.37,10.36-6.06Z" transform="translate(-272.45 -559.77)"/></svg>